<?xml version="1.0" encoding="utf-8"?>
<!-- Generator: Adobe Illustrator 16.0.3, SVG Export Plug-In . SVG Version: 6.00 Build 0)  -->
<!DOCTYPE svg PUBLIC "-//W3C//DTD SVG 1.1//EN" "http://www.w3.org/Graphics/SVG/1.1/DTD/svg11.dtd">
<svg version="1.1" id="Capa_1" xmlns="http://www.w3.org/2000/svg" xmlns:xlink="http://www.w3.org/1999/xlink" x="0px" y="0px"
	 width="600px" height="163.402px" viewBox="0 0 600 163.402" enable-background="new 0 0 600 163.402" xml:space="preserve">
<path fill="#001D9C" d="M87.997,5.326c-42.508,0-76.981,34.474-76.981,76.982c0,42.508,34.474,76.981,76.981,76.981
	c42.507,0,76.981-34.474,76.981-76.981C164.978,39.8,130.504,5.326,87.997,5.326 M145.756,42.605
	c-0.942-1.37-1.941-2.695-2.978-3.992C143.815,39.91,144.814,41.236,145.756,42.605 M133.544,29.05
	c-1.183-1.013-2.409-1.974-3.658-2.908C131.135,27.076,132.361,28.037,133.544,29.05 M117.39,18.693
	c-1.312-0.604-2.629-1.187-3.981-1.71C114.761,17.506,116.082,18.087,117.39,18.693 M111.66,148.299
	c1.613-0.577,3.191-1.227,4.746-1.918C114.853,147.073,113.273,147.722,111.66,148.299 M127.892,139.933
	c1.345-0.936,2.649-1.922,3.925-2.944C130.541,138.013,129.236,138.998,127.892,139.933 M151.339,112.348
	c0.723-1.518,1.377-3.077,1.989-4.654C152.716,109.271,152.062,110.83,151.339,112.348 M156.934,94.96
	c0.31-1.687,0.567-3.388,0.754-5.114C157.501,91.572,157.243,93.273,156.934,94.96 M144.777,86.049
	c-0.196,3.004-0.624,5.942-1.268,8.799l13.422,0.124c-0.789,4.325-1.99,8.508-3.533,12.52l-11.508-6.896
	c-0.96,2.83-2.131,5.56-3.505,8.167l12.953,3.586c-1.875,3.945-4.124,7.674-6.671,11.168l-9.328-9.621
	c-1.653,2.471-3.496,4.807-5.507,6.983l11.575,6.797c1.089-1.278,2.125-2.6,3.117-3.954c-3.567,4.856-7.747,9.231-12.424,13.024
	l-6.532-11.711c-2.227,1.96-4.604,3.745-7.117,5.34l9.434,9.561c-3.551,2.463-7.348,4.591-11.33,6.373l-3.291-13.004
	c-2.642,1.313-5.394,2.433-8.249,3.325l6.641,11.669c-4.035,1.447-8.251,2.504-12.592,3.188l0.179-13.381
	c-2.873,0.574-5.826,0.929-8.838,1.054l3.401,12.967c-1.919,0.164-3.85,0.278-5.811,0.278c-2.422,0-4.813-0.129-7.171-0.368
	l3.642-12.935c-3.01-0.186-5.955-0.604-8.821-1.24l-0.06,13.406c-4.319-0.773-8.505-1.916-12.512-3.44l6.853-11.553
	c-2.838-0.951-5.578-2.118-8.199-3.483l-3.528,12.968c-4.332-2.037-8.405-4.527-12.198-7.371c0.344,0.258,0.676,0.524,1.024,0.778
	l9.594-9.382c-2.764-1.832-5.354-3.898-7.751-6.17l-6.941,11.47c-2.952-2.576-5.689-5.386-8.171-8.417l11.687-6.585
	c-2.193-2.47-4.178-5.125-5.919-7.949l-9.658,9.285c-2.179-3.235-4.09-6.657-5.711-10.246l12.976-3.342
	c-1.476-2.932-2.708-6.008-3.663-9.205l-11.752,6.489c-1.263-3.667-2.217-7.474-2.859-11.383l13.397,0.119
	c-0.656-3.192-1.032-6.484-1.13-9.846l-13.026,3.235c-0.118-1.632-0.2-3.272-0.2-4.933c0-2.295,0.155-4.553,0.376-6.79l12.903,3.572
	c0.187-3.357,0.676-6.631,1.421-9.808l-13.43-0.236c0.748-3.895,1.81-7.674,3.171-11.309l11.587,6.805
	c1.042-3.166,2.343-6.214,3.897-9.108l-12.917-3.696c1.72-3.543,3.741-6.911,6.012-10.09l9.427,9.556
	c1.815-2.774,3.864-5.381,6.123-7.791l-11.505-6.894c2.56-2.969,5.35-5.734,8.372-8.234l6.647,11.678
	c2.456-2.205,5.105-4.196,7.917-5.952l-9.342-9.637c3.23-2.198,6.648-4.138,10.23-5.785l3.406,12.994
	c2.924-1.49,5.988-2.743,9.177-3.716l-6.537-11.72c3.666-1.284,7.471-2.271,11.387-2.933L76.16,26.634
	c3.184-0.676,6.468-1.073,9.826-1.192l-3.292-13.013c1.753-0.13,3.517-0.22,5.304-0.22c2.179,0,4.323,0.141,6.448,0.342
	l-3.514,12.915c3.353,0.171,6.624,0.648,9.798,1.375l0.179-13.405c4.317,0.803,8.5,1.988,12.499,3.544l-6.954,11.49
	c2.829,0.97,5.558,2.15,8.165,3.533l3.635-12.91c3.933,1.886,7.662,4.125,11.144,6.68l-9.662,9.288
	c2.466,1.659,4.792,3.514,6.965,5.532l6.846-11.542c3.3,2.824,6.316,5.956,9.043,9.334l-11.743,6.484
	c1.949,2.231,3.729,4.614,5.314,7.131l9.603-9.391c2.454,3.562,4.577,7.363,6.348,11.358l-13.03,3.236
	c1.301,2.644,2.409,5.397,3.294,8.253l11.691-6.588c1.439,4.05,2.522,8.269,3.198,12.623l-13.432-0.239
	c0.567,2.871,0.91,5.82,1.025,8.831l12.984-3.345c0.148,1.839,0.258,3.691,0.258,5.568c0,2.514-0.141,4.994-0.398,7.439
	L144.777,86.049z M42.644,135.71c0.5,0.424,1,0.849,1.512,1.258C43.643,136.559,43.143,136.134,42.644,135.71"/>
<path fill="#001D9C" d="M87.997,26.977c-30.553,0-55.331,24.777-55.331,55.333c0,30.553,24.778,55.331,55.331,55.331
	s55.332-24.778,55.332-55.331C143.329,51.754,118.55,26.977,87.997,26.977"/>
<path fill="#001D9C" d="M156.799,11.954c-4.518,0-8.181,3.663-8.181,8.183c0,4.518,3.663,8.18,8.181,8.18s8.179-3.662,8.179-8.18
	C164.978,15.617,161.317,11.954,156.799,11.954 M156.799,27.253c-3.931,0-7.119-3.186-7.119-7.116c0-3.933,3.188-7.118,7.119-7.118
	s7.116,3.186,7.116,7.118C163.915,24.067,160.729,27.253,156.799,27.253"/>
<path fill="#001D9C" d="M153.503,18.773c0-1.411-0.094-2.068-0.094-2.538c0-0.563-0.281-0.658-1.035-0.658
	c-0.095,0-0.281-0.094-0.281-0.188c0-0.188,0.187-0.282,0.47-0.282h0.469c0.189,0,0.941,0.094,1.222,0.094
	c0.847,0,1.222-0.094,1.974-0.094c1.597,0,3.946,0.282,3.946,2.538c0,0.939-0.281,1.692-1.691,2.819l1.597,1.974
	c1.224,1.503,1.601,1.598,1.788,1.598c0.187,0,0.281,0.093,0.281,0.187c0,0.188-0.094,0.282-0.658,0.282
	c-1.22,0-1.878,0.094-3.29-1.786l-1.314-1.785h-1.691v0.845c0,1.879,0.092,1.974,0.189,2.067c0.187,0.094,0.655,0.189,0.936,0.189
	c0.189,0,0.283,0,0.283,0.187c0,0.188-0.187,0.282-0.375,0.282h-0.375c-0.19,0-1.035-0.094-1.504-0.094
	c-0.281,0-1.22,0.094-1.411,0.094h-0.467c-0.191,0-0.377,0-0.377-0.188c0-0.188,0.187-0.281,0.377-0.281
	c0.845,0,0.845,0,0.939-0.563c0-0.471,0.094-1.129,0.094-2.632V18.773z M155.194,19.9c0.281,0.19,0.844,0.282,1.408,0.282
	c0.283,0,0.658-0.092,0.939-0.282c0.472-0.281,0.849-0.75,0.849-1.69c0-1.315-0.849-2.256-2.352-2.256c-0.094,0-0.655,0-0.844,0.188
	V19.9z"/>
<path fill="#FFFFFF" d="M79.051,124.5h8.674V90.084c-2.436,1.391-6.014,3.006-8.674,3.685V124.5z"/>
<path fill="#FFFFFF" d="M73.312,70.319l-4.127-0.008v-2.405l18.54-0.004v19.057c-5.146,2.94-11.732,5.064-18.408,5.742
	c-0.575,0.06-1.143,0.054-1.714,0.092c-2.305,0.144-4.589,0.154-6.801-0.081c-0.359-0.046-0.715-0.1-1.073-0.162
	c-0.366-0.05-0.72-0.128-1.083-0.19c-12.369-2.642-21.667-13.535-21.877-26.642c0.236-16.325,12.233-27.608,28.349-28.125
	c0.383-0.013,0.757-0.051,1.148-0.051c6.718,0,11.916,2.626,16.603,2.848c0.597,0,1.446-0.358,1.76-1.045h1.791v14.859h-2.5
	l-0.075-0.358c-2.057-7.282-8.228-10.527-14.896-10.831c-10.485-0.48-22.291,7.008-21.948,22.849
	C47.206,75.39,52.307,84.47,62.4,86.556c4.575,0.944,10.145,0.612,16.556-2.438v-7.974C78.957,73.685,77.134,70.319,73.312,70.319"
	/>
<path fill-rule="evenodd" clip-rule="evenodd" fill="#FFFFFF" d="M126.328,120.612c-6.123,2.19-10.333-3.65-13.534-7.871
	l-11.499-15.168c3.652-0.892,7.991-2.121,10.657-5.499c6.646-8.428,2.463-19.764-7.18-22.511c-4.027-1.146-8.245-1.72-12.737-1.665
	c-0.391,0.006-0.767-0.019-1.162-0.004v1.997v3.483c1.107-0.385,2.297-0.593,3.534-0.593c4.967,0,9.107,3.386,10.344,7.96
	c0.164,0.871,0.412,1.802,0.412,2.846c0,1.822-0.543,3.373-1.186,4.726c-0.062,0.125-0.096,0.266-0.162,0.39
	c-0.188,0.349-0.439,0.643-0.663,0.962c-0.267,0.379-0.524,0.762-0.836,1.101c-0.309,0.333-0.658,0.623-1.006,0.916
	c-0.268,0.227-0.536,0.454-0.826,0.654c-2.496,1.722-5.72,2.622-8.945,2.855c-0.221,0.018-0.443,0.033-0.665,0.04v3.928
	c0.399,0.002,2.711,0.208,4.348,2.913c0.296,0.407,10.487,14.423,10.487,14.423c4.285,5.907,7.125,8.146,14.604,8.121
	c2.177-0.008,4.801-0.202,6.473-1.743l0.148-0.137v-2.339L126.328,120.612z"/>
<path fill="#001D9C" d="M230.514,69.314c-3.777,3.777-8.173,5.663-13.192,5.663c-3.109,0-6.028-0.621-8.76-1.863
	c-2.731-1.243-5.107-2.954-7.127-5.13c-2.021-2.175-3.621-4.742-4.797-7.694c-1.178-2.953-1.764-6.139-1.764-9.559
	c0-3.242,0.586-6.296,1.764-9.161c1.176-2.864,2.798-5.372,4.862-7.526c2.064-2.155,4.499-3.864,7.294-5.131
	c2.798-1.265,5.84-1.897,9.128-1.897c4.438,0,8.249,0.932,11.423,2.797c3.175,1.864,5.563,4.375,7.162,7.526l-6.861,5.064
	c-1.197-2.355-2.875-4.153-5.029-5.395c-2.153-1.245-4.497-1.868-7.029-1.868c-1.997,0-3.827,0.424-5.495,1.268
	c-1.665,0.845-3.086,1.997-4.263,3.463c-1.176,1.466-2.088,3.155-2.731,5.063c-0.645,1.91-0.965,3.929-0.965,6.063
	c0,2.22,0.355,4.295,1.065,6.228c0.71,1.931,1.688,3.608,2.93,5.027c1.244,1.423,2.721,2.544,4.432,3.366
	c1.709,0.821,3.561,1.233,5.563,1.233c4.572,0,8.703-2.155,12.391-6.462v-3.332h-9.526v-6.727h17.119v24.313h-7.592V69.314z"/>
<path fill="#001D9C" d="M245.967,74.645V27.347h20.918c2.176,0,4.185,0.457,6.026,1.367c1.845,0.91,3.431,2.108,4.764,3.596
	c1.333,1.489,2.374,3.176,3.132,5.063c0.754,1.887,1.132,3.786,1.132,5.696c0,3.063-0.766,5.851-2.299,8.357
	c-1.531,2.512-3.608,4.321-6.226,5.43l10.792,17.788h-10.328L264.22,58.79h-9.061v15.855H245.967z M255.159,50.729h11.525
	c0.843,0,1.632-0.2,2.363-0.599c0.733-0.4,1.368-0.943,1.899-1.633c0.535-0.688,0.956-1.499,1.268-2.431
	c0.309-0.932,0.465-1.931,0.465-2.997c0-1.111-0.179-2.132-0.533-3.066c-0.356-0.932-0.833-1.742-1.432-2.431
	c-0.602-0.688-1.29-1.22-2.064-1.598c-0.779-0.376-1.568-0.567-2.367-0.567h-11.125V50.729z"/>
<polygon fill="#001D9C" points="306.251,74.644 306.251,27.348 315.444,27.348 315.444,66.583 339.56,66.583 339.56,74.644 "/>
<path fill="#001D9C" d="M359.012,75.31c-2.844,0-5.396-0.489-7.66-1.465c-2.267-0.976-4.187-2.297-5.765-3.963
	c-1.576-1.665-2.788-3.585-3.628-5.762c-0.845-2.175-1.267-4.463-1.267-6.861c0-2.442,0.422-4.751,1.267-6.927
	c0.84-2.177,2.052-4.098,3.628-5.764c1.578-1.667,3.498-2.986,5.765-3.964c2.265-0.975,4.816-1.466,7.66-1.466
	c2.84,0,5.383,0.491,7.627,1.466c2.243,0.978,4.152,2.297,5.729,3.964c1.576,1.666,2.786,3.586,3.631,5.764
	c0.843,2.175,1.264,4.484,1.264,6.927c0,2.398-0.421,4.686-1.264,6.861c-0.845,2.177-2.044,4.097-3.598,5.762
	c-1.555,1.666-3.464,2.987-5.728,3.963C364.408,74.82,361.852,75.31,359.012,75.31 M349.886,57.258c0,1.555,0.234,2.964,0.698,4.231
	c0.468,1.264,1.11,2.363,1.932,3.296c0.822,0.934,1.789,1.654,2.897,2.166c1.112,0.511,2.312,0.765,3.599,0.765
	c1.289,0,2.485-0.254,3.598-0.765c1.108-0.511,2.074-1.232,2.897-2.166c0.819-0.933,1.464-2.042,1.932-3.33
	c0.466-1.288,0.699-2.709,0.699-4.264c0-1.509-0.233-2.908-0.699-4.196c-0.468-1.287-1.112-2.398-1.932-3.33
	c-0.823-0.934-1.789-1.655-2.897-2.166c-1.112-0.511-2.309-0.767-3.598-0.767c-1.287,0-2.486,0.267-3.599,0.799
	c-1.108,0.533-2.075,1.266-2.897,2.198c-0.821,0.934-1.464,2.043-1.932,3.331C350.12,54.349,349.886,55.748,349.886,57.258"/>
<path fill="#001D9C" d="M396.913,74.845c-2.353,0-4.482-0.467-6.395-1.399c-1.909-0.932-3.563-2.209-4.963-3.832
	c-1.398-1.62-2.474-3.498-3.229-5.627c-0.758-2.134-1.133-4.398-1.133-6.796c0-2.532,0.399-4.884,1.196-7.061
	c0.801-2.175,1.913-4.087,3.333-5.727c1.422-1.645,3.13-2.934,5.129-3.867c2-0.932,4.197-1.399,6.596-1.399
	c2.71,0,5.086,0.613,7.129,1.833c2.04,1.222,3.729,2.854,5.06,4.896v-6.129h7.796V72.98c0,2.574-0.489,4.884-1.466,6.926
	c-0.979,2.043-2.321,3.775-4.03,5.199c-1.71,1.417-3.754,2.506-6.128,3.263c-2.376,0.754-4.965,1.131-7.761,1.131
	c-3.822,0-7.029-0.631-9.627-1.897c-2.598-1.266-4.83-3.055-6.693-5.363l4.861-4.73c1.333,1.643,3.01,2.931,5.032,3.863
	c2.018,0.933,4.159,1.399,6.427,1.399c1.376,0,2.697-0.188,3.963-0.566c1.269-0.377,2.386-0.967,3.363-1.765
	c0.977-0.799,1.743-1.822,2.297-3.063c0.559-1.246,0.833-2.711,0.833-4.397v-4.398c-1.154,1.999-2.771,3.542-4.861,4.631
	C401.555,74.301,399.313,74.845,396.913,74.845 M399.913,67.716c0.977,0,1.909-0.155,2.798-0.466
	c0.888-0.309,1.71-0.733,2.465-1.265c0.754-0.532,1.421-1.154,1.997-1.865c0.577-0.709,1.024-1.466,1.331-2.266v-8.327
	c-0.797-2.042-2.055-3.685-3.761-4.929c-1.711-1.242-3.498-1.865-5.365-1.865c-1.376,0-2.619,0.3-3.728,0.898
	c-1.113,0.6-2.065,1.399-2.866,2.399c-0.798,0.999-1.409,2.143-1.831,3.431c-0.424,1.288-0.633,2.621-0.633,3.996
	c0,1.422,0.244,2.755,0.732,3.998c0.489,1.243,1.167,2.332,2.032,3.264c0.866,0.933,1.874,1.666,3.029,2.197
	C397.271,67.451,398.536,67.716,399.913,67.716"/>
<path fill="#001D9C" d="M425.492,39.737h8.926v34.908h-8.926V39.737z M432.221,35.674l-5.73-1.731l3.597-7.928h8.329L432.221,35.674
	z"/>
<path fill="#001D9C" d="M455.667,75.31c-2.93,0-5.795-0.464-8.594-1.399c-2.794-0.931-5.195-2.263-7.192-3.996l3.328-5.595
	c2.132,1.51,4.21,2.653,6.23,3.43c2.021,0.778,4.028,1.165,6.028,1.165c1.774,0,3.174-0.333,4.198-0.999
	c1.02-0.666,1.53-1.619,1.53-2.864c0-1.242-0.599-2.154-1.797-2.731c-1.199-0.577-3.156-1.243-5.864-1.998
	c-2.263-0.621-4.196-1.221-5.793-1.798c-1.601-0.578-2.89-1.234-3.864-1.967c-0.978-0.731-1.69-1.575-2.131-2.53
	c-0.447-0.955-0.671-2.098-0.671-3.431c0-1.777,0.347-3.375,1.036-4.797c0.688-1.421,1.652-2.631,2.896-3.63
	c1.245-1,2.699-1.765,4.365-2.299c1.665-0.532,3.474-0.799,5.431-0.799c2.618,0,5.07,0.378,7.357,1.132
	c2.288,0.755,4.387,1.976,6.298,3.664l-3.599,5.396c-1.775-1.333-3.496-2.309-5.163-2.933c-1.665-0.619-3.32-0.931-4.963-0.931
	c-1.511,0-2.775,0.313-3.794,0.931c-1.024,0.624-1.533,1.624-1.533,3c0,0.623,0.12,1.132,0.365,1.533
	c0.241,0.4,0.633,0.756,1.168,1.066c0.53,0.311,1.23,0.611,2.095,0.898c0.868,0.29,1.943,0.589,3.23,0.899
	c2.399,0.622,4.454,1.245,6.165,1.865c1.706,0.623,3.104,1.334,4.196,2.134c1.087,0.798,1.888,1.72,2.397,2.764
	c0.509,1.043,0.764,2.297,0.764,3.764c0,3.42-1.265,6.118-3.794,8.093C463.462,74.322,460.02,75.31,455.667,75.31"/>
<path fill="#001D9C" d="M496.502,72.845c-1.197,0.534-2.664,1.066-4.395,1.599c-1.733,0.534-3.556,0.8-5.465,0.8
	c-1.243,0-2.409-0.156-3.498-0.468c-1.089-0.309-2.041-0.809-2.862-1.497c-0.821-0.689-1.476-1.578-1.965-2.666
	c-0.491-1.088-0.732-2.408-0.732-3.965v-20.05h-4.598v-6.86h4.598V28.413h8.927v11.325h7.326v6.86h-7.326v17.054
	c0,1.243,0.319,2.122,0.964,2.63c0.645,0.512,1.434,0.766,2.365,0.766s1.844-0.156,2.73-0.464c0.889-0.312,1.601-0.577,2.132-0.801
	L496.502,72.845z"/>
<path fill="#001D9C" d="M501.164,26.016h8.928v8.86h-8.928V26.016z M501.164,39.738h8.928v34.907h-8.928V39.738z"/>
<path fill="#001D9C" d="M515.952,57.191c0-2.442,0.422-4.751,1.269-6.929c0.841-2.175,2.063-4.084,3.66-5.728
	c1.6-1.643,3.532-2.954,5.797-3.932c2.264-0.976,4.819-1.465,7.661-1.465c3.819,0,7.07,0.822,9.759,2.465
	c2.687,1.643,4.695,3.796,6.028,6.462l-8.726,2.664c-0.757-1.289-1.756-2.275-2.998-2.963c-1.245-0.69-2.622-1.034-4.131-1.034
	c-1.287,0-2.488,0.258-3.597,0.767c-1.112,0.511-2.077,1.222-2.899,2.13c-0.821,0.912-1.467,2.012-1.929,3.299
	c-0.468,1.288-0.701,2.709-0.701,4.263c0,1.555,0.244,2.976,0.733,4.264c0.488,1.287,1.144,2.398,1.965,3.33
	c0.821,0.934,1.786,1.655,2.897,2.166c1.109,0.511,2.287,0.767,3.53,0.767c1.599,0,3.074-0.4,4.43-1.2
	c1.354-0.798,2.299-1.775,2.832-2.93l8.726,2.664c-1.198,2.664-3.175,4.841-5.929,6.527c-2.755,1.688-6.061,2.532-9.926,2.532
	c-2.842,0-5.396-0.489-7.66-1.466c-2.264-0.976-4.196-2.297-5.795-3.964c-1.598-1.666-2.83-3.596-3.697-5.795
	C516.385,61.887,515.952,59.59,515.952,57.191"/>
<path fill="#001D9C" d="M565.247,75.309c-1.687,0-3.263-0.275-4.729-0.831c-1.465-0.554-2.731-1.332-3.797-2.331
	s-1.898-2.165-2.497-3.497c-0.601-1.333-0.901-2.797-0.901-4.397c0-1.642,0.368-3.165,1.101-4.563
	c0.731-1.399,1.753-2.585,3.063-3.563c1.309-0.977,2.874-1.743,4.697-2.299c1.817-0.555,3.818-0.833,5.995-0.833
	c1.553,0,3.074,0.134,4.563,0.4c1.485,0.266,2.807,0.643,3.962,1.132v-2c0-2.307-0.654-4.084-1.965-5.327
	c-1.31-1.244-3.253-1.866-5.827-1.866c-1.866,0-3.687,0.333-5.466,1c-1.775,0.666-3.593,1.643-5.46,2.931l-2.73-5.662
	c4.483-2.976,9.325-4.463,14.521-4.463c5.019,0,8.914,1.233,11.69,3.696c2.774,2.465,4.164,6.029,4.164,10.693v10.857
	c0,0.932,0.167,1.6,0.498,1.998c0.333,0.4,0.876,0.623,1.634,0.666v7.596c-1.513,0.31-2.822,0.465-3.931,0.465
	c-1.689,0-2.988-0.377-3.898-1.131c-0.909-0.756-1.476-1.753-1.697-2.999l-0.2-1.932c-1.557,2.045-3.444,3.598-5.662,4.663
	C570.153,74.776,567.779,75.309,565.247,75.309 M567.779,68.781c1.511,0,2.942-0.265,4.299-0.797
	c1.353-0.534,2.406-1.243,3.163-2.131c0.976-0.754,1.464-1.6,1.464-2.533v-3.997c-1.066-0.398-2.221-0.722-3.463-0.966
	c-1.243-0.245-2.444-0.365-3.598-0.365c-2.31,0-4.197,0.521-5.663,1.566c-1.465,1.044-2.197,2.363-2.197,3.963
	c0,1.51,0.577,2.763,1.73,3.764C564.67,68.283,566.092,68.781,567.779,68.781"/>
<rect x="198.405" y="87.874" fill="#77777A" width="5.996" height="47.296"/>
<path fill="#77777A" d="M244.967,135.169h-5.862v-19.453c0-3.729-0.566-6.438-1.699-8.127c-1.133-1.686-2.855-2.529-5.163-2.529
	c-1.197,0-2.397,0.231-3.598,0.699c-1.199,0.463-2.33,1.099-3.396,1.897c-1.066,0.8-1.997,1.756-2.798,2.864
	c-0.8,1.112-1.398,2.333-1.798,3.663v20.985h-5.861v-34.772h5.328v7.462c1.374-2.444,3.365-4.398,5.963-5.865
	c2.598-1.466,5.428-2.197,8.493-2.197c1.999,0,3.663,0.366,4.996,1.097c1.332,0.735,2.397,1.757,3.196,3.066
	c0.801,1.311,1.366,2.854,1.7,4.63c0.333,1.776,0.5,3.71,0.5,5.794V135.169z"/>
<path fill="#77777A" d="M271.749,133.438c-0.358,0.177-0.822,0.389-1.399,0.633c-0.578,0.244-1.232,0.488-1.967,0.732
	c-0.733,0.244-1.531,0.443-2.399,0.6c-0.864,0.155-1.764,0.233-2.696,0.233c-2.132,0-3.977-0.589-5.53-1.768
	c-1.557-1.173-2.332-3.005-2.332-5.495v-23.381h-4.731v-4.595h4.731V88.807h5.861v11.591h7.794v4.595h-7.794v21.584
	c0.088,1.289,0.509,2.221,1.268,2.798c0.754,0.577,1.643,0.865,2.665,0.865c1.152,0,2.208-0.188,3.163-0.565
	c0.955-0.378,1.609-0.677,1.967-0.9L271.749,133.438z"/>
<path fill="#77777A" d="M292.132,135.835c-2.62,0-5.02-0.478-7.196-1.433c-2.176-0.953-4.041-2.254-5.593-3.897
	c-1.557-1.639-2.767-3.563-3.63-5.761c-0.868-2.197-1.301-4.517-1.301-6.961c0-2.441,0.433-4.752,1.301-6.929
	c0.863-2.176,2.085-4.084,3.663-5.728c1.576-1.644,3.454-2.944,5.628-3.898c2.178-0.955,4.574-1.431,7.196-1.431
	c2.621,0,5.007,0.488,7.16,1.466c2.153,0.975,3.986,2.276,5.495,3.896c1.511,1.622,2.676,3.507,3.5,5.663
	c0.821,2.155,1.231,4.384,1.231,6.695c0,0.489-0.012,0.931-0.033,1.332c-0.022,0.4-0.058,0.71-0.1,0.934h-28.844
	c0.133,1.731,0.532,3.307,1.197,4.726c0.666,1.425,1.534,2.645,2.6,3.666c1.066,1.022,2.276,1.821,3.631,2.399
	c1.354,0.577,2.786,0.863,4.294,0.863c1.065,0,2.11-0.142,3.132-0.433c1.021-0.286,1.976-0.677,2.863-1.166
	c0.889-0.488,1.678-1.086,2.365-1.797c0.69-0.71,1.21-1.51,1.566-2.397l5.064,1.397c-0.577,1.289-1.368,2.466-2.365,3.532
	c-1,1.065-2.154,1.985-3.465,2.763s-2.765,1.39-4.364,1.832C295.528,135.614,293.864,135.835,292.132,135.835 M304.056,115.452
	c-0.132-1.642-0.542-3.164-1.23-4.565c-0.689-1.396-1.557-2.585-2.598-3.563c-1.045-0.978-2.255-1.741-3.633-2.299
	c-1.376-0.552-2.84-0.831-4.395-0.831c-1.557,0-3.021,0.279-4.398,0.831c-1.377,0.558-2.586,1.333-3.628,2.333
	c-1.045,0.999-1.89,2.187-2.532,3.563c-0.646,1.378-1.032,2.888-1.166,4.53H304.056z"/>
<path fill="#77777A" d="M329.968,135.57c-2.354,0-4.519-0.488-6.492-1.467c-1.979-0.975-3.677-2.285-5.097-3.931
	c-1.424-1.642-2.522-3.529-3.3-5.66c-0.775-2.133-1.166-4.353-1.166-6.663c0-2.443,0.391-4.763,1.166-6.96
	c0.777-2.199,1.876-4.12,3.3-5.763c1.42-1.644,3.118-2.942,5.097-3.898c1.974-0.953,4.16-1.431,6.561-1.431
	c2.929,0,5.461,0.712,7.593,2.131c2.133,1.422,3.932,3.219,5.396,5.396v-6.927h5.196v34.374c0,2.485-0.467,4.672-1.398,6.561
	c-0.931,1.888-2.199,3.474-3.798,4.763c-1.6,1.289-3.475,2.266-5.63,2.933c-2.153,0.665-4.45,0.998-6.895,0.998
	c-3.952,0-7.159-0.679-9.626-2.031c-2.463-1.356-4.518-3.23-6.161-5.628l3.398-2.999c1.376,2.043,3.151,3.576,5.328,4.595
	c2.176,1.021,4.529,1.532,7.061,1.532c1.602,0,3.119-0.221,4.564-0.665c1.443-0.444,2.697-1.111,3.764-1.997
	c1.067-0.89,1.92-2,2.564-3.333c0.645-1.331,0.966-2.907,0.966-4.728v-6.128c-0.664,1.064-1.454,2.029-2.364,2.897
	c-0.91,0.864-1.899,1.597-2.966,2.197c-1.065,0.601-2.197,1.054-3.397,1.366C332.434,135.414,331.213,135.57,329.968,135.57
	 M331.769,130.773c1.241,0,2.439-0.222,3.594-0.666c1.157-0.444,2.223-1.033,3.2-1.765c0.976-0.735,1.797-1.565,2.463-2.498
	c0.669-0.935,1.11-1.889,1.333-2.865v-9.99c-0.488-1.2-1.121-2.291-1.896-3.266c-0.78-0.977-1.657-1.833-2.634-2.565
	c-0.977-0.735-2.03-1.298-3.164-1.698c-1.132-0.401-2.276-0.599-3.431-0.599c-1.775,0-3.365,0.375-4.762,1.132
	c-1.399,0.754-2.586,1.755-3.563,2.998c-0.978,1.243-1.731,2.653-2.265,4.229c-0.533,1.577-0.801,3.165-0.801,4.764
	c0,1.731,0.31,3.374,0.934,4.929c0.619,1.556,1.466,2.909,2.532,4.064c1.065,1.154,2.318,2.074,3.762,2.763
	C328.513,130.431,330.079,130.773,331.769,130.773"/>
<path fill="#77777A" d="M376.066,105.527c-2.931,0.088-5.519,0.843-7.762,2.263c-2.242,1.424-3.829,3.398-4.762,5.93v21.45h-5.863
	v-34.774h5.463v8.06c1.198-2.396,2.776-4.336,4.729-5.826c1.954-1.489,4.042-2.32,6.263-2.5h1.131c0.313,0,0.578,0.023,0.801,0.067
	V105.527z"/>
<path fill="#77777A" d="M390.787,135.835c-1.645,0-3.176-0.277-4.595-0.832c-1.423-0.556-2.657-1.32-3.7-2.297
	c-1.042-0.978-1.863-2.122-2.462-3.433c-0.601-1.311-0.898-2.74-0.898-4.298c0-1.598,0.354-3.053,1.065-4.361
	c0.708-1.312,1.719-2.434,3.028-3.367c1.309-0.931,2.863-1.665,4.662-2.197c1.801-0.534,3.766-0.798,5.897-0.798
	c1.688,0,3.396,0.155,5.132,0.467c1.73,0.312,3.262,0.731,4.595,1.264v-2.798c0-2.842-0.801-5.073-2.4-6.693
	c-1.597-1.621-3.863-2.432-6.793-2.432c-3.51,0-7.194,1.354-11.058,4.063l-1.934-3.798c4.486-3.019,8.993-4.529,13.523-4.529
	c4.574,0,8.138,1.223,10.69,3.664c2.554,2.443,3.831,5.885,3.831,10.326v14.188c0,1.377,0.624,2.088,1.867,2.132v5.063
	c-0.624,0.089-1.135,0.153-1.532,0.2c-0.4,0.042-0.823,0.066-1.266,0.066c-1.155,0-2.079-0.343-2.765-1.033
	c-0.691-0.688-1.1-1.519-1.233-2.497l-0.134-2.464c-1.556,2.087-3.521,3.672-5.893,4.762
	C396.038,135.291,393.497,135.835,390.787,135.835 M392.318,131.438c2.089,0,4.032-0.386,5.829-1.163
	c1.799-0.778,3.164-1.812,4.099-3.098c0.841-0.845,1.266-1.709,1.266-2.598v-5.13c-2.845-1.112-5.797-1.666-8.858-1.666
	c-2.933,0-5.32,0.624-7.166,1.866c-1.841,1.243-2.761,2.862-2.761,4.862c0,0.976,0.187,1.887,0.565,2.729
	c0.376,0.848,0.91,1.578,1.598,2.2c0.687,0.621,1.498,1.109,2.434,1.463C390.255,131.261,391.253,131.438,392.318,131.438"/>
<path fill="#77777A" d="M418.898,86.541h5.862v39.636c0,1.289,0.342,2.298,1.032,3.032c0.688,0.732,1.654,1.097,2.897,1.097
	c0.488,0,1.065-0.077,1.733-0.23c0.665-0.154,1.285-0.343,1.864-0.566l0.934,4.729c-0.978,0.4-2.133,0.732-3.466,0.998
	c-1.332,0.269-2.509,0.4-3.529,0.4c-2.267,0-4.053-0.644-5.364-1.93c-1.31-1.289-1.964-3.089-1.964-5.396V86.541z"/>
</svg>
